# xmcd
#
# Track frame offsets: 
#        150
#        14138
#        27300
#        41215
#        55528
#        68918
#        84190
#        101913
#        118005
#        137618
#        149938
#        167308
#        183618
#        202213
#        214755
#        224668
#        241368
#        255088
#        267825
#        279848
#
# Disc length: 3938 seconds
#
# Revision: 0
# Processed by: cddbd v1.5.1PL2 Copyright (c) Steve Scherf et al.
# Submitted via: ExactAudioCopy v0.95a4
#
DISCID=330f6014
DTITLE=Various Artist - Stars of Las Vegas
DYEAR=1900
DGENRE=Soul
TTITLE0=Duke Ellington - Take the 'A' train
TTITLE1=Tony Bennett - I left my heart in San Francisco
TTITLE2=Liza Minelli - God bless the child
TTITLE3=Tom Jones - I'm coming home
TTITLE4=Shirley Bassey - What now my love
TTITLE5=Engelbert Humperdinck - A man without love
TTITLE6=Kenny Rogers - Lady
TTITLE7=Dionne Warwick - All the love in the world
TTITLE8=Paul Anka - My way
TTITLE9=Sarah Vaughn and Billy Eckstine - Passing strangers
TTITLE10=Count Basie - April in Paris
TTITLE11=Ella Fitzgerald - Ev'ry time we say goodbye
TTITLE12=Vic Damone - The very throught of you
TTITLE13=Andy Williams - Moon river
TTITLE14=Dinah Washington - September in the rain
TTITLE15=Perry Como - For the good times
TTITLE16=Dean Martin - Volare
TTITLE17=Al Martino - Spanish eyes
TTITLE18=Doris Day - Move over darling
TTITLE19=Nat 'King'' Cole - Unforgettable
EXTD=
EXTT0=
EXTT1=
EXTT2=
EXTT3=
EXTT4=
EXTT5=
EXTT6=
EXTT7=
EXTT8=
EXTT9=
EXTT10=
EXTT11=
EXTT12=
EXTT13=
EXTT14=
EXTT15=
EXTT16=
EXTT17=
EXTT18=
EXTT19=
PLAYORDER=
